<svg width="85" height="85" viewBox="0 0 85 85" fill="none" xmlns="http://www.w3.org/2000/svg">
<rect width="85" height="85" fill="white"/>
<path fill-rule="evenodd" clip-rule="evenodd" d="M38 65C53.464 65 66 52.464 66 37C66 21.536 53.464 9 38 9C22.536 9 10 21.536 10 37C10 52.464 22.536 65 38 65ZM38 58C49.598 58 59 48.598 59 37C59 25.402 49.598 16 38 16C26.402 16 17 25.402 17 37C17 48.598 26.402 58 38 58Z" fill="#459CB8"/>
<line x1="69.3712" y1="74.4371" x2="56.4371" y2="58.6288" stroke="#459CB8" stroke-width="8" stroke-linecap="round"/>
<path d="M27.1547 27.8849L33.9047 24.0277L40.6547 27.8849V35.5947L33.9047 39.4518L27.1547 35.5947V27.8849Z" fill="#FFDAA3" stroke="#EEB45D" stroke-width="0.5"/>
<path d="M33.9047 31.7398L40.9047 35.7398L33.9047 39.7398L33.9047 31.7398Z" fill="#C9964A"/>
<path d="M33.6547 39.309L27.4086 35.7398L33.6547 32.1706L33.6547 39.309Z" fill="#EEB45D" stroke="#EEB45D" stroke-width="0.5"/>
<path d="M40.6547 35.309L34.4086 31.7398L40.6547 28.1706L40.6547 35.309Z" fill="#EEB45D" stroke="#EEB45D" stroke-width="0.5"/>
<path d="M33.6547 24.1706L33.6547 31.309L27.4086 27.7398L33.6547 24.1706ZM27.1547 28.1706L33.4008 31.7398L27.1547 35.309L27.1547 28.1706ZM34.1547 31.309L34.1547 24.1706L40.4008 27.7398L34.1547 31.309Z" fill="#FFDAA3" stroke="#EEB45D" stroke-width="0.5"/>
<path d="M32.7151 46.5819L36.0639 44.6683L39.4127 46.5819V50.4046L36.0639 52.3182L32.7151 50.4046V46.5819Z" fill="#FFDAA3" stroke="#EEB45D" stroke-width="0.5"/>
<path d="M36.0639 48.4932L39.6627 50.5497L36.0639 52.6062L36.0639 48.4932Z" fill="#C9964A"/>
<path d="M35.8139 52.1754L32.969 50.5497L35.8139 48.924L35.8139 52.1754Z" fill="#EEB45D" stroke="#EEB45D" stroke-width="0.5"/>
<path d="M39.4127 50.1189L36.5678 48.4932L39.4127 46.8676L39.4127 50.1189Z" fill="#EEB45D" stroke="#EEB45D" stroke-width="0.5"/>
<path d="M35.8139 44.8111L35.8139 48.0624L32.969 46.4368L35.8139 44.8111ZM32.7151 46.8676L35.56 48.4932L32.7151 50.1189L32.7151 46.8676ZM36.3139 48.0624L36.3139 44.8111L39.1588 46.4368L36.3139 48.0624Z" fill="#FFDAA3" stroke="#EEB45D" stroke-width="0.5"/>
<path d="M44.8223 36.1431L49 33.7559L53.1777 36.1431V40.9133L49 43.3005L44.8223 40.9133V36.1431Z" fill="#FFDAA3" stroke="#EEB45D" stroke-width="0.5"/>
<path d="M49 38.5282L53.4277 41.0584L49 43.5885L49 38.5282Z" fill="#C9964A"/>
<path d="M48.75 43.1577L45.0761 41.0583L48.75 38.959L48.75 43.1577Z" fill="#EEB45D" stroke="#EEB45D" stroke-width="0.5"/>
<path d="M53.1777 40.6276L49.5039 38.5282L53.1777 36.4289L53.1777 40.6276Z" fill="#EEB45D" stroke="#EEB45D" stroke-width="0.5"/>
<path d="M48.75 33.8987L48.75 38.0974L45.0762 35.9981L48.75 33.8987ZM44.8223 36.4289L48.4961 38.5282L44.8223 40.6276L44.8223 36.4289ZM49.25 38.0974L49.25 33.8987L52.9238 35.9981L49.25 38.0974Z" fill="#FFDAA3" stroke="#EEB45D" stroke-width="0.5"/>
</svg>
