<svg width="85" height="85" viewBox="0 0 85 85" fill="none" xmlns="http://www.w3.org/2000/svg">
<rect width="85" height="85" fill="white"/>
<ellipse cx="57.004" cy="35.7021" rx="19.0247" ry="16.9608" transform="rotate(15.6681 57.004 35.7021)" fill="#97A4E7"/>
<path d="M67.309 31.3206C66.9627 30.0649 66.6396 29.7598 65.6874 27.8627C64.6767 27.5343 64.6505 27.9359 64.7973 29.1287C65.3106 30.2267 66.2003 29.8657 67.309 31.3206Z" fill="#5A6290"/>
<path d="M65.6175 27.5488C65.5392 27.8281 65.3277 28.0775 64.9694 28.2816C64.6098 28.4864 64.1178 28.6356 63.519 28.7145C62.3223 28.872 60.7485 28.7419 59.0869 28.2759C57.4254 27.8099 56.0135 27.1025 55.0733 26.3456C54.6028 25.9668 54.2602 25.5835 54.0596 25.2215C53.8597 24.8609 53.8087 24.5378 53.8871 24.2586C53.9654 23.9794 54.1769 23.7299 54.5352 23.5258C54.8948 23.321 55.3868 23.1718 55.9856 23.093C57.1823 22.9354 58.7561 23.0655 60.4177 23.5315C62.0792 23.9976 63.4911 24.705 64.4313 25.4619C64.9018 25.8406 65.2444 26.2239 65.445 26.5859C65.6449 26.9466 65.6958 27.2696 65.6175 27.5488Z" fill="#97A4E7" stroke="#5A6291" stroke-width="0.5"/>
<path d="M69.4535 35.6709C70.2478 39.2786 69.7691 41.2628 66.8885 44.8161" stroke="#F5F5F5" stroke-linecap="round"/>
<path d="M60.2262 19.6951C60.8951 21.0703 61.112 21.9493 61.072 23.8077L58.7218 23.1485C58.8698 21.9882 59.2554 21.2079 60.2262 19.6951Z" fill="#5A6290"/>
<path d="M67.8192 23.2341C66.7743 24.3502 66.5281 24.9978 65.3432 26.439L63.0157 24.7052C63.8554 23.8769 66.2791 23.5067 67.8192 23.2341Z" fill="#5A6290"/>
<path d="M52.3439 21.0073C52.8391 21.8508 54.0453 22.4221 54.3078 24.2693C54.7327 23.5429 55.1205 23.3536 56.0312 23.3434C55.7447 22.1992 53.7008 21.3879 52.3439 21.0073Z" fill="#5A6290"/>
<path d="M64.8876 20.9679C64.427 22.2826 63.9358 23.2312 63.316 24.9796L60.9804 24.1343C61.4854 23.0788 62.3917 21.7117 64.8876 20.9679Z" fill="#5A6290"/>
<path d="M69.0978 29.4731C67.7103 28.8404 66.8836 28.4638 64.9965 28.0793L65.5462 26.1196C66.7063 26.4772 67.94 27.1691 69.0978 29.4731Z" fill="#5A6290"/>
<path d="M56.2858 19.9991C57.4042 21.0708 58.3051 21.5628 58.9385 23.3304L55.8972 23.0738C55.6162 21.9285 55.9288 21.7554 56.2858 19.9991Z" fill="#5A6290"/>
<path d="M52.0518 27.2669C52.4182 25.9604 52.768 25.8282 53.6463 24.1911C54.9549 24.7603 55.5482 25.3172 55.769 26.5484C55.1089 27.5184 53.618 26.3327 52.0518 27.2669Z" fill="#5A6290"/>
<path d="M54.5185 29.664C54.3715 28.3081 54.7655 28.0281 55.3152 26.0684C56.9318 25.9043 57.2252 26.3663 57.6924 27.692C57.4423 28.8339 55.6208 28.2395 54.5185 29.664Z" fill="#5A6290"/>
<path d="M57.2604 31.0344C56.7466 29.7583 57.0473 29.3853 57.0352 27.3443C58.5398 26.7684 58.9481 27.1406 59.7606 28.3049C59.835 29.4761 57.9253 29.3697 57.2604 31.0344Z" fill="#5A6290"/>
<path d="M50.5662 24.7363C51.611 23.6202 52.6981 23.2116 54.5963 23.5341L54.1416 25.0346C52.9704 24.7151 52.1063 24.4637 50.5662 24.7363Z" fill="#5A6290"/>
<path d="M50.5662 24.7363C51.611 23.6202 52.6981 23.2116 54.5963 23.5341L54.1416 25.0346C52.9704 24.7151 52.1063 24.4637 50.5662 24.7363Z" fill="#5A6290"/>
<ellipse cx="59.7522" cy="25.9037" rx="2.11386" ry="0.678432" transform="rotate(15.6681 59.7522 25.9037)" fill="#5A6290"/>
<path d="M59.6434 31.5101C60.0098 30.2036 59.8331 30.3515 59.4584 28.3362C60.833 27.5161 61.3 27.8159 62.3047 28.8314C62.586 29.9767 61.3667 30.5842 59.6434 31.5101Z" fill="#5A6290"/>
<path d="M64.0309 31.5877C64.4469 30.0389 65.3085 29.576 64.7128 28.1547C63.7734 27.2878 62.2107 28.3131 62.3111 28.8903C62.4116 29.4681 63.5852 30.5019 64.0309 31.5877Z" fill="#5A6290"/>
<path d="M45.0181 30.0393C47.2521 31.6815 47.7171 34.8262 46.0512 37.0641C44.3854 39.302 41.2234 39.7805 38.9894 38.1383C36.7554 36.4961 36.2905 33.3513 37.9563 31.1135C39.6221 28.8756 42.7842 28.3971 45.0181 30.0393Z" fill="#FFADAD" stroke="#F15A6D" stroke-width="0.8"/>
<path d="M42.4554 55.9527C44.6894 57.5949 45.1543 60.7397 43.4885 62.9775C41.8227 65.2154 38.6606 65.6939 36.4267 64.0517C34.1927 62.4095 33.7277 59.2648 35.3935 57.0269C37.0594 54.7891 40.2214 54.3105 42.4554 55.9527Z" fill="#FFADAD" stroke="#F15A6D" stroke-width="0.8"/>
<path d="M38.3647 54.6362C40.5987 56.2784 41.0637 59.4231 39.3979 61.661C37.732 63.8988 34.57 64.3774 32.336 62.7352C30.102 61.093 29.6371 57.9482 31.3029 55.7104C32.9687 53.4725 36.1308 52.994 38.3647 54.6362Z" fill="#FFADAD" stroke="#F15A6D" stroke-width="0.8"/>
<path d="M44.6162 50.7793C46.8501 52.4215 47.3151 55.5663 45.6493 57.8041C43.9834 60.042 40.8214 60.5205 38.5874 58.8783C36.3534 57.2361 35.8885 54.0914 37.5543 51.8535C39.2201 49.6157 42.3822 49.1371 44.6162 50.7793Z" fill="#FFADAD" stroke="#F15A6D" stroke-width="0.8"/>
<path d="M33.1817 52.5165C35.4156 54.1587 35.8806 57.3035 34.2148 59.5413C32.549 61.7792 29.3869 62.2577 27.1529 60.6155C24.919 58.9733 24.454 55.8286 26.1198 53.5907C27.7856 51.3529 30.9477 50.8743 33.1817 52.5165Z" fill="#FFADAD" stroke="#F15A6D" stroke-width="0.8"/>
<path d="M38.6198 49.7523C40.8538 51.3945 41.3187 54.5392 39.6529 56.7771C37.9871 59.0149 34.825 59.4935 32.5911 57.8513C30.3571 56.2091 29.8921 53.0643 31.5579 50.8265C33.2238 48.5886 36.3858 48.1101 38.6198 49.7523Z" fill="#FFADAD" stroke="#F15A6D" stroke-width="0.8"/>
<path d="M45.6845 44.8029C47.9184 46.4451 48.3834 49.5898 46.7176 51.8277C45.0518 54.0655 41.8897 54.544 39.6557 52.9018C37.4218 51.2596 36.9568 48.1149 38.6226 45.877C40.2884 43.6392 43.4505 43.1607 45.6845 44.8029Z" fill="#FFADAD" stroke="#F15A6D" stroke-width="0.8"/>
<path d="M28.8119 49.3043C31.0459 50.9465 31.5108 54.0912 29.845 56.3291C28.1792 58.567 25.0171 59.0455 22.7832 57.4033C20.5492 55.7611 20.0842 52.6163 21.7501 50.3785C23.4159 48.1406 26.5779 47.6621 28.8119 49.3043Z" fill="#FFADAD" stroke="#F15A6D" stroke-width="0.8"/>
<path d="M35.0633 45.4475C37.2973 47.0897 37.7622 50.2344 36.0964 52.4723C34.4306 54.7101 31.2686 55.1886 29.0346 53.5464C26.8006 51.9043 26.3356 48.7595 28.0015 46.5216C29.6673 44.2838 32.8293 43.8053 35.0633 45.4475Z" fill="#FFADAD" stroke="#F15A6D" stroke-width="0.8"/>
<path d="M46.7528 38.8264C48.9868 40.4686 49.4517 43.6133 47.7859 45.8512C46.1201 48.089 42.958 48.5676 40.7241 46.9254C38.4901 45.2832 38.0251 42.1384 39.6909 39.9006C41.3568 37.6627 44.5188 37.1842 46.7528 38.8264Z" fill="#FFADAD" stroke="#F15A6D" stroke-width="0.8"/>
<path d="M39.1298 39.9845C41.3638 41.6267 41.8287 44.7715 40.1629 47.0093C38.4971 49.2472 35.335 49.7257 33.1011 48.0835C30.8671 46.4413 30.4021 43.2966 32.068 41.0587C33.7338 38.8209 36.8958 38.3423 39.1298 39.9845Z" fill="#FFADAD" stroke="#F15A6D" stroke-width="0.8"/>
<path d="M24.163 44.1964C26.397 45.8386 26.8619 48.9834 25.1961 51.2212C23.5303 53.4591 20.3682 53.9376 18.1343 52.2954C15.9003 50.6532 15.4353 47.5085 17.1011 45.2706C18.767 43.0328 21.929 42.5542 24.163 44.1964Z" fill="#FFADAD" stroke="#F15A6D" stroke-width="0.8"/>
<path d="M28.7878 42.5248C31.0218 44.167 31.4867 47.3117 29.8209 49.5496C28.1551 51.7874 24.993 52.2659 22.7591 50.6238C20.5251 48.9816 20.0601 45.8368 21.7259 43.5989C23.3918 41.3611 26.5538 40.8826 28.7878 42.5248Z" fill="#FFADAD" stroke="#F15A6D" stroke-width="0.8"/>
<path d="M41.2906 34.8111C43.5246 36.4533 43.9895 39.5981 42.3237 41.8359C40.6579 44.0738 37.4958 44.5523 35.2619 42.9101C33.0279 41.2679 32.5629 38.1232 34.2287 35.8853C35.8946 33.6475 39.0566 33.1689 41.2906 34.8111Z" fill="#FFADAD" stroke="#F15A6D" stroke-width="0.8"/>
<path d="M32.8543 37.0618C35.0883 38.704 35.5532 41.8488 33.8874 44.0866C32.2216 46.3245 29.0595 46.803 26.8256 45.1608C24.5916 43.5186 24.1266 40.3739 25.7924 38.136C27.4583 35.8981 30.6203 35.4196 32.8543 37.0618Z" fill="#FFADAD" stroke="#F15A6D" stroke-width="0.8"/>
<path d="M22.2331 37.7064C24.4671 39.3486 24.9321 42.4934 23.2663 44.7312C21.6004 46.9691 18.4384 47.4476 16.2044 45.8054C13.9704 44.1632 13.5055 41.0185 15.1713 38.7806C16.8371 36.5428 19.9992 36.0642 22.2331 37.7064Z" fill="#FFADAD" stroke="#F15A6D" stroke-width="0.8"/>
<path d="M37.5922 28.1213C39.8262 29.7635 40.2912 32.9082 38.6253 35.1461C36.9595 37.3839 33.7975 37.8625 31.5635 36.2203C29.3295 34.5781 28.8646 31.4333 30.5304 29.1955C32.1962 26.9576 35.3583 26.4791 37.5922 28.1213Z" fill="#FFADAD" stroke="#F15A6D" stroke-width="0.8"/>
<path d="M29.097 32.4807C31.3309 34.1229 31.7959 37.2677 30.1301 39.5055C28.4643 41.7434 25.3022 42.2219 23.0682 40.5797C20.8343 38.9375 20.3693 35.7928 22.0351 33.5549C23.7009 31.3171 26.863 30.8385 29.097 32.4807Z" fill="#FFADAD" stroke="#F15A6D" stroke-width="0.8"/>
<path d="M19.2655 27.3079C21.5987 29.3035 23.4799 29.6609 27.806 29.012C34.8979 26.7898 37.2893 24.5033 39.6104 19.1502C39.7793 25.2472 38.2185 27.5559 33.0556 30.0848C34.0561 32.2758 34.8218 32.762 36.2297 33.4763C33.9757 35.6658 32.4801 36.5459 29.1431 37.1128C21.6271 41.7428 17.3281 43.365 9.31149 42.2694C14.5665 40.8863 17.1672 39.5666 21.1521 36.1932C15.3347 38.23 12.49 37.9495 8.22255 34.7053C13.2399 35.619 16.3416 35.2809 22.9515 31.5031C20.8626 31.0101 19.9979 30.1932 19.2655 27.3079Z" fill="#5BC7A0"/>
<path d="M33.565 25.2958C35.3816 28.7466 36.0237 30.6031 36.369 33.7478C33.5205 35.7327 31.9265 36.492 29.0873 37.4845C32.2385 33.7948 32.946 30.9824 33.565 25.2958Z" fill="#5BF2BC"/>
<path d="M24.4177 23.9032L28.0586 22.0348C27.3472 26.7697 26.886 29.3024 27.5308 32.9574L25.7104 33.8915C24.7148 30.0007 24.321 27.816 24.4177 23.9032Z" fill="#459F7F"/>
</svg>
