<svg width="85" height="85" viewBox="0 0 85 85" fill="none" xmlns="http://www.w3.org/2000/svg">
<rect width="85" height="85" fill="white"/>
<circle cx="46.6456" cy="38.5385" r="13.3462" fill="#BCF3FF" stroke="#459CB8"/>
<path d="M55.2994 37.3846C54.8231 42.7643 54.1001 44.6428 48.609 46.5142" stroke="white" stroke-width="1.5" stroke-linecap="round"/>
<circle cx="69.7226" cy="62.7692" r="4.11538" fill="#BCF3FF" stroke="#459CB8"/>
<path d="M72.6072 62.3846C72.4484 64.1779 72.2074 64.804 70.3771 65.4278" stroke="white" stroke-linecap="round"/>
<circle cx="67.9918" cy="34.5" r="3.53846" fill="#BCF3FF" stroke="#459CB8"/>
<path d="M70.5158 34.1635C70.3769 35.7325 70.166 36.2804 68.5645 36.8262" stroke="white" stroke-linecap="round"/>
<circle cx="63.9533" cy="50.0769" r="5.26923" fill="#BCF3FF" stroke="#459CB8"/>
<path d="M67.5591 49.5962C67.3606 51.8377 67.0594 52.6204 64.7714 53.4001" stroke="white" stroke-linecap="round"/>
<circle cx="41.4533" cy="18.3462" r="4.69231" fill="#BCF3FF" stroke="#459CB8"/>
<path d="M44.6985 17.9135C44.5199 19.9308 44.2488 20.6353 42.1896 21.337" stroke="white" stroke-linecap="round"/>
<circle cx="60.4918" cy="20.0769" r="7.57692" fill="#BCF3FF" stroke="#459CB8"/>
<path d="M65.5398 19.4038C65.262 22.542 64.8402 23.6378 61.6371 24.7294" stroke="white" stroke-width="1.5" stroke-linecap="round"/>
<circle cx="54.7225" cy="62.7692" r="6.42308" fill="#BCF3FF" stroke="#459CB8"/>
<path d="M59.0495 62.1923C58.8113 64.8822 58.4498 65.8214 55.7043 66.7571" stroke="white" stroke-width="1.5" stroke-linecap="round"/>
<circle cx="17.2048" cy="56.4142" r="4.69675" transform="rotate(-0.0883331 17.2048 56.4142)" fill="#BCF3FF" stroke="#459CB8"/>
<path d="M20.4521 55.9761C20.2764 57.9955 20.0061 58.701 17.9463 59.4065" stroke="white" stroke-linecap="round"/>
<circle cx="33.3764" cy="62.1923" r="9.30769" fill="#BCF3FF" stroke="#459CB8"/>
<path d="M39.5062 61.375C39.1688 65.1856 38.6566 66.5162 34.7672 67.8418" stroke="white" stroke-width="1.5" stroke-linecap="round"/>
<circle cx="22.4149" cy="42" r="5.26923" fill="#BCF3FF" stroke="#459CB8"/>
<path d="M26.0206 41.5192C25.8221 43.7608 25.5209 44.5435 23.2329 45.3232" stroke="white" stroke-linecap="round"/>
<circle cx="24.1456" cy="21.8077" r="8.15385" fill="#BCF3FF" stroke="#459CB8"/>
<path d="M29.5543 21.0865C29.2566 24.4488 28.8047 25.6229 25.3728 26.7925" stroke="white" stroke-width="1.5" stroke-linecap="round"/>
</svg>
