<svg width="85" height="85" viewBox="0 0 85 85" fill="none" xmlns="http://www.w3.org/2000/svg">
<rect width="85" height="85" fill="white"/>
<mask id="path-1-inside-1_9_63" fill="white">
<path fill-rule="evenodd" clip-rule="evenodd" d="M60.6056 23.903C57.1786 19.3853 55.6744 16.4615 53.7754 11C50.8541 14.8681 45.7029 17.4598 40.7595 19.9468C38.6015 21.0326 36.483 22.0984 34.6071 23.2418C29.7505 25.0623 26.8693 28.2683 26.3519 31.8297C14.4589 34.1803 8.6443 41.3866 10.2675 51.6667C12.2675 64.3333 24.8928 67 42.9341 67C60.9754 67 75.6008 67 75.6008 51.6667C75.6008 45.778 73.4437 42.1508 69.7644 39.9166C68.2508 38.658 66.4932 37.5506 64.553 36.5835C64.8031 35.5368 64.9341 34.3486 64.9341 33C64.9341 29.1624 64.1026 26.8536 62.5595 25.4783C61.9957 24.8576 61.341 24.338 60.6056 23.903Z"/>
</mask>
<path fill-rule="evenodd" clip-rule="evenodd" d="M60.6056 23.903C57.1786 19.3853 55.6744 16.4615 53.7754 11C50.8541 14.8681 45.7029 17.4598 40.7595 19.9468C38.6015 21.0326 36.483 22.0984 34.6071 23.2418C29.7505 25.0623 26.8693 28.2683 26.3519 31.8297C14.4589 34.1803 8.6443 41.3866 10.2675 51.6667C12.2675 64.3333 24.8928 67 42.9341 67C60.9754 67 75.6008 67 75.6008 51.6667C75.6008 45.778 73.4437 42.1508 69.7644 39.9166C68.2508 38.658 66.4932 37.5506 64.553 36.5835C64.8031 35.5368 64.9341 34.3486 64.9341 33C64.9341 29.1624 64.1026 26.8536 62.5595 25.4783C61.9957 24.8576 61.341 24.338 60.6056 23.903Z" fill="#BDFAE4"/>
<path d="M53.7754 11L54.7199 10.6716L54.1053 8.90388L52.9774 10.3973L53.7754 11ZM60.6056 23.903L59.8089 24.5074L59.9276 24.6638L60.0965 24.7637L60.6056 23.903ZM40.7595 19.9468L41.2089 20.8402L41.2089 20.8402L40.7595 19.9468ZM34.6071 23.2418L34.9581 24.1781L35.0467 24.1449L35.1275 24.0957L34.6071 23.2418ZM26.3519 31.8297L26.5458 32.8107L27.2398 32.6736L27.3415 31.9735L26.3519 31.8297ZM10.2675 51.6667L9.2797 51.8226L10.2675 51.6667ZM69.7644 39.9166L69.1251 40.6855L69.182 40.7329L69.2454 40.7714L69.7644 39.9166ZM64.553 36.5835L63.5804 36.3511L63.3957 37.124L64.1069 37.4785L64.553 36.5835ZM62.5595 25.4783L61.8192 26.1506L61.8547 26.1897L61.8941 26.2248L62.5595 25.4783ZM52.8309 11.3284C54.7611 16.8798 56.3128 19.8986 59.8089 24.5074L61.4023 23.2987C58.0444 18.8721 56.5876 16.0431 54.7199 10.6716L52.8309 11.3284ZM41.2089 20.8402C46.0879 18.3855 51.483 15.6947 54.5734 11.6027L52.9774 10.3973C50.2253 14.0414 45.3178 16.534 40.3101 19.0535L41.2089 20.8402ZM35.1275 24.0957C36.9623 22.9774 39.0426 21.9301 41.2089 20.8402L40.3101 19.0535C38.1603 20.1351 36.0038 21.2194 34.0866 22.3879L35.1275 24.0957ZM34.2561 22.3054C29.1793 24.2084 25.9485 27.6515 25.3623 31.6859L27.3415 31.9735C27.7902 28.8852 30.3216 25.9161 34.9581 24.1781L34.2561 22.3054ZM26.158 30.8487C20.0618 32.0535 15.3928 34.5284 12.464 38.1453C9.51901 41.782 8.43177 46.4524 9.2797 51.8226L11.2552 51.5107C10.48 46.6008 11.4885 42.528 14.0183 39.4039C16.5641 36.26 20.7489 33.9564 26.5458 32.8107L26.158 30.8487ZM9.2797 51.8226C9.8054 55.152 11.0393 57.8711 12.9201 60.0583C14.7962 62.2399 17.2734 63.8432 20.216 65.0126C26.0674 67.3381 33.8999 68 42.9341 68V66C33.9271 66 26.4263 65.3286 20.9546 63.154C18.2357 62.0735 16.054 60.6351 14.4365 58.7542C12.8238 56.8789 11.7295 54.5146 11.2552 51.5107L9.2797 51.8226ZM42.9341 68C51.8918 68 60.2448 68.0113 66.3414 66.0346C69.422 65.0358 72.0138 63.5053 73.8273 61.1397C75.6455 58.768 76.6008 55.6623 76.6008 51.6667H74.6008C74.6008 55.3377 73.728 57.982 72.2401 59.9228C70.7476 61.8697 68.5554 63.2142 65.7245 64.1321C59.9981 65.9887 52.0178 66 42.9341 66V68ZM76.6008 51.6667C76.6008 48.601 76.0391 46.0557 74.9496 43.96C73.8567 41.8575 72.2613 40.2629 70.2835 39.0619L69.2454 40.7714C70.9468 41.8046 72.2696 43.1406 73.1751 44.8824C74.084 46.631 74.6008 48.8437 74.6008 51.6667H76.6008ZM70.4038 39.1477C68.8202 37.8309 66.9949 36.6833 64.9991 35.6885L64.1069 37.4785C65.9915 38.4179 67.6813 39.485 69.1251 40.6855L70.4038 39.1477ZM65.5257 36.8159C65.797 35.6801 65.9341 34.4124 65.9341 33H63.9341C63.9341 34.2849 63.8092 35.3934 63.5804 36.3511L65.5257 36.8159ZM65.9341 33C65.9341 29.0504 65.0827 26.3876 63.2248 24.7317L61.8941 26.2248C63.1225 27.3196 63.9341 29.2745 63.9341 33H65.9341ZM63.2997 24.8059C62.6624 24.1043 61.9276 23.5231 61.1147 23.0423L60.0965 24.7637C60.7544 25.1529 61.329 25.6109 61.8192 26.1506L63.2997 24.8059Z" fill="#459CB8" mask="url(#path-1-inside-1_9_63)"/>
<path d="M54.5291 33.021C55.9078 30.763 54.7593 27.9502 51.6008 27.9502" stroke="#459CB8" stroke-linecap="round"/>
<path d="M46.3997 48.9794C49.6008 43.7368 46.9341 37.2061 39.6008 37.2061" stroke="#459CB8" stroke-linecap="round"/>
<path d="M62.5291 50.2769C63.9078 48.0189 62.7593 45.2061 59.6008 45.2061" stroke="#459CB8" stroke-linecap="round"/>
<path d="M30.1626 42.3602C25.1663 41.8686 21.3084 46.1532 23.916 51.5499" stroke="#459CB8" stroke-linecap="round"/>
</svg>
