<svg width="85" height="85" viewBox="0 0 85 85" fill="none" xmlns="http://www.w3.org/2000/svg">
<rect width="85" height="85" fill="white"/>
<path d="M33.5 75.8302L25.3373 71.1658V61.8414L33.5 57.177L41.6627 61.8414V71.1658L33.5 75.8302Z" fill="#FFDAA3" stroke="#EEB45D" stroke-width="0.5"/>
<path d="M33.5 66.5036L41.9127 71.3109L33.5 76.1181L33.5 66.5036Z" fill="#C9964A"/>
<path d="M33.25 75.6873L25.5912 71.3108L33.25 66.9344L33.25 75.6873Z" fill="#EEB45D" stroke="#EEB45D" stroke-width="0.5"/>
<path d="M41.6627 70.8801L34.0039 66.5036L41.6627 62.1271L41.6627 70.8801Z" fill="#EEB45D" stroke="#EEB45D" stroke-width="0.5"/>
<path d="M41.4088 61.6963L33.75 66.0728L33.75 57.3199L41.4088 61.6963ZM33.25 57.3199L33.25 66.0728L25.5912 61.6963L33.25 57.3199ZM25.3373 62.1271L32.9961 66.5036L25.3373 70.8801L25.3373 62.1271Z" fill="#FFDAA3" stroke="#EEB45D" stroke-width="0.5"/>
<path d="M25.5 61.8302L17.3373 57.1658V47.8414L25.5 43.177L33.6627 47.8414V57.1658L25.5 61.8302Z" fill="#FFDAA3" stroke="#EEB45D" stroke-width="0.5"/>
<path d="M25.5 52.5036L33.9127 57.3109L25.5 62.1181L25.5 52.5036Z" fill="#C9964A"/>
<path d="M25.25 61.6873L17.5912 57.3108L25.25 52.9344L25.25 61.6873Z" fill="#EEB45D" stroke="#EEB45D" stroke-width="0.5"/>
<path d="M33.6627 56.8801L26.0039 52.5036L33.6627 48.1271L33.6627 56.8801Z" fill="#EEB45D" stroke="#EEB45D" stroke-width="0.5"/>
<path d="M33.4088 47.6963L25.75 52.0728L25.75 43.3199L33.4088 47.6963ZM25.25 43.3199L25.25 52.0728L17.5912 47.6963L25.25 43.3199ZM17.3373 48.1271L24.9961 52.5036L17.3373 56.8801L17.3373 48.1271Z" fill="#FFDAA3" stroke="#EEB45D" stroke-width="0.5"/>
<path d="M65.5 47.8302L57.3373 43.1658V33.8414L65.5 29.177L73.6627 33.8414V43.1658L65.5 47.8302Z" fill="#FFDAA3" stroke="#EEB45D" stroke-width="0.5"/>
<path d="M65.5 38.5036L73.9127 43.3109L65.5 48.1181L65.5 38.5036Z" fill="#C9964A"/>
<path d="M65.25 47.6873L57.5912 43.3108L65.25 38.9344L65.25 47.6873Z" fill="#EEB45D" stroke="#EEB45D" stroke-width="0.5"/>
<path d="M73.6627 42.8801L66.0039 38.5036L73.6627 34.1271L73.6627 42.8801Z" fill="#EEB45D" stroke="#EEB45D" stroke-width="0.5"/>
<path d="M73.4088 33.6963L65.75 38.0728L65.75 29.3199L73.4088 33.6963ZM65.25 29.3199L65.25 38.0728L57.5912 33.6963L65.25 29.3199ZM57.3373 34.1271L64.9961 38.5036L57.3373 42.8801L57.3373 34.1271Z" fill="#FFDAA3" stroke="#EEB45D" stroke-width="0.5"/>
<path d="M49.5 75.8302L41.3373 71.1658V61.8414L49.5 57.177L57.6627 61.8414V71.1658L49.5 75.8302Z" fill="#FFDAA3" stroke="#EEB45D" stroke-width="0.5"/>
<path d="M49.5 66.5036L57.9127 71.3109L49.5 76.1181L49.5 66.5036Z" fill="#C9964A"/>
<path d="M49.25 75.6873L41.5912 71.3108L49.25 66.9344L49.25 75.6873Z" fill="#EEB45D" stroke="#EEB45D" stroke-width="0.5"/>
<path d="M57.6627 70.8801L50.0039 66.5036L57.6627 62.1271L57.6627 70.8801Z" fill="#EEB45D" stroke="#EEB45D" stroke-width="0.5"/>
<path d="M57.4088 61.6963L49.75 66.0728L49.75 57.3199L57.4088 61.6963ZM49.25 57.3199L49.25 66.0728L41.5912 61.6963L49.25 57.3199ZM41.3373 62.1271L48.9961 66.5036L41.3373 70.8801L41.3373 62.1271Z" fill="#FFDAA3" stroke="#EEB45D" stroke-width="0.5"/>
<path d="M57.5 61.8302L49.3373 57.1658V47.8414L57.5 43.177L65.6627 47.8414V57.1658L57.5 61.8302Z" fill="#FFDAA3" stroke="#EEB45D" stroke-width="0.5"/>
<path d="M57.5 52.5036L65.9127 57.3109L57.5 62.1181L57.5 52.5036Z" fill="#C9964A"/>
<path d="M57.25 61.6873L49.5912 57.3108L57.25 52.9344L57.25 61.6873Z" fill="#EEB45D" stroke="#EEB45D" stroke-width="0.5"/>
<path d="M65.6627 56.8801L58.0039 52.5036L65.6627 48.1271L65.6627 56.8801Z" fill="#EEB45D" stroke="#EEB45D" stroke-width="0.5"/>
<path d="M65.4088 47.6963L57.75 52.0728L57.75 43.3199L65.4088 47.6963ZM57.25 43.3199L57.25 52.0728L49.5912 47.6963L57.25 43.3199ZM49.3373 48.1271L56.9961 52.5036L49.3373 56.8801L49.3373 48.1271Z" fill="#FFDAA3" stroke="#EEB45D" stroke-width="0.5"/>
<path d="M57.5 33.8302L49.3373 29.1658V19.8414L57.5 15.177L65.6627 19.8414V29.1658L57.5 33.8302Z" fill="#FFDAA3" stroke="#EEB45D" stroke-width="0.5"/>
<path d="M57.5 24.5036L65.9127 29.3109L57.5 34.1181L57.5 24.5036Z" fill="#C9964A"/>
<path d="M57.25 33.6873L49.5912 29.3108L57.25 24.9344L57.25 33.6873Z" fill="#EEB45D" stroke="#EEB45D" stroke-width="0.5"/>
<path d="M65.6627 28.8801L58.0039 24.5036L65.6627 20.1271L65.6627 28.8801Z" fill="#EEB45D" stroke="#EEB45D" stroke-width="0.5"/>
<path d="M65.4088 19.6963L57.75 24.0728L57.75 15.3199L65.4088 19.6963ZM57.25 15.3199L57.25 24.0728L49.5912 19.6963L57.25 15.3199ZM49.3373 20.1271L56.9961 24.5036L49.3373 28.8801L49.3373 20.1271Z" fill="#FFDAA3" stroke="#EEB45D" stroke-width="0.5"/>
<path d="M49.5 47.8302L41.3373 43.1658V33.8414L49.5 29.177L57.6627 33.8414V43.1658L49.5 47.8302Z" fill="#FFDAA3" stroke="#EEB45D" stroke-width="0.5"/>
<path d="M49.5 38.5036L57.9127 43.3109L49.5 48.1181L49.5 38.5036Z" fill="#C9964A"/>
<path d="M49.25 47.6873L41.5912 43.3108L49.25 38.9344L49.25 47.6873Z" fill="#EEB45D" stroke="#EEB45D" stroke-width="0.5"/>
<path d="M57.6627 42.8801L50.0039 38.5036L57.6627 34.1271L57.6627 42.8801Z" fill="#EEB45D" stroke="#EEB45D" stroke-width="0.5"/>
<path d="M57.4088 33.6963L49.75 38.0728L49.75 29.3199L57.4088 33.6963ZM49.25 29.3199L49.25 38.0728L41.5912 33.6963L49.25 29.3199ZM41.3373 34.1271L48.9961 38.5036L41.3373 42.8801L41.3373 34.1271Z" fill="#FFDAA3" stroke="#EEB45D" stroke-width="0.5"/>
<path d="M41.5 61.8302L33.3373 57.1658V47.8414L41.5 43.177L49.6627 47.8414V57.1658L41.5 61.8302Z" fill="#FFDAA3" stroke="#EEB45D" stroke-width="0.5"/>
<path d="M41.5 52.5036L49.9127 57.3109L41.5 62.1181L41.5 52.5036Z" fill="#C9964A"/>
<path d="M41.25 61.6873L33.5912 57.3108L41.25 52.9344L41.25 61.6873Z" fill="#EEB45D" stroke="#EEB45D" stroke-width="0.5"/>
<path d="M49.6627 56.8801L42.0039 52.5036L49.6627 48.1271L49.6627 56.8801Z" fill="#EEB45D" stroke="#EEB45D" stroke-width="0.5"/>
<path d="M49.4088 47.6963L41.75 52.0728L41.75 43.3199L49.4088 47.6963ZM41.25 43.3199L41.25 52.0728L33.5912 47.6963L41.25 43.3199ZM33.3373 48.1271L40.9961 52.5036L33.3373 56.8801L33.3373 48.1271Z" fill="#FFDAA3" stroke="#EEB45D" stroke-width="0.5"/>
<circle cx="33" cy="38" r="7.5" fill="#BCF3FF" stroke="#459CB8"/>
<path d="M38 37.3333C37.7248 40.4416 37.307 41.527 34.1344 42.6082" stroke="white" stroke-width="1.5" stroke-linecap="round"/>
<circle cx="17" cy="38" r="7.5" fill="#BCF3FF" stroke="#459CB8"/>
<path d="M22 37.3333C21.7248 40.4416 21.307 41.527 18.1344 42.6082" stroke="white" stroke-width="1.5" stroke-linecap="round"/>
<circle cx="25" cy="24" r="7.5" fill="#BCF3FF" stroke="#459CB8"/>
<path d="M30 23.3333C29.7248 26.4416 29.307 27.527 26.1344 28.6082" stroke="white" stroke-width="1.5" stroke-linecap="round"/>
<circle cx="41" cy="24" r="7.5" fill="#BCF3FF" stroke="#459CB8"/>
<path d="M46 23.3333C45.7248 26.4416 45.307 27.527 42.1344 28.6082" stroke="white" stroke-width="1.5" stroke-linecap="round"/>
</svg>
