<svg width="85" height="85" viewBox="0 0 85 85" fill="none" xmlns="http://www.w3.org/2000/svg">
<rect width="85" height="85" fill="white"/>
<rect x="18" y="15" width="48" height="54" fill="#C0C0C0"/>
<ellipse cx="42" cy="15" rx="24" ry="6" fill="#E8E8E8"/>
<ellipse cx="42" cy="15" rx="18" ry="4" fill="#65CFE7"/>
<ellipse cx="42" cy="69" rx="24" ry="6" fill="#C0C0C0"/>
<path d="M61 58C61 60.2091 52.7173 62 42.5 62C32.2827 62 24 60.2091 24 58C24 55.7909 32.2827 54 42.5 54C52.7173 54 61 55.7909 61 58Z" fill="white"/>
<path fill-rule="evenodd" clip-rule="evenodd" d="M24 26V58.5744H61V26C56.0905 27.0848 49.6073 27.7445 42.5 27.7445C35.3927 27.7445 28.9095 27.0848 24 26Z" fill="white"/>
<path d="M35.3713 43.4718L30.1538 37.8516L38.3463 31.1473L42.8233 37.3734L35.3713 43.4718Z" fill="#FFDAA3" stroke="#C9964A" stroke-width="0.2"/>
<rect x="35.3618" y="43.6087" width="9.81721" height="2.94516" transform="rotate(-39.2951 35.3618 43.6087)" fill="#D9D9D9"/>
<path fill-rule="evenodd" clip-rule="evenodd" d="M44.8246 39.6706L37.2271 45.888C38.9141 45.5051 39.8239 45.4905 41.4405 45.6112C42.148 45.8632 42.3837 46.0637 42.753 46.44L46.3454 52.38L50.0069 57.6292C51.3832 58.6025 52.2227 58.648 53.7714 58.3541C54.4476 57.1185 54.6475 56.355 53.8056 54.5205L49.3844 49.893L44.2725 45.1965C43.8934 44.6992 43.736 44.397 43.7198 43.746C43.9094 42.1961 44.1759 41.2995 44.8246 39.6706ZM52.8388 57.2145C53.2584 56.8711 53.3202 56.2526 52.9768 55.833C52.6335 55.4134 52.0149 55.3516 51.5953 55.695C51.1757 56.0384 51.114 56.6569 51.4573 57.0765C51.8007 57.4961 52.4192 57.5579 52.8388 57.2145Z" fill="#EEB45D"/>
<path d="M35.5825 40.003L32.6474 35.7451L31.9894 36.2836L35.5825 40.003Z" fill="#C9964A"/>
<path d="M35.9795 37.7754L33.8125 34.7917L33.4835 35.0609L35.9795 37.7754Z" fill="#C9964A"/>
<path d="M39.0185 35.2884L36.8515 32.3048L36.5225 32.574L39.0185 35.2884Z" fill="#C9964A"/>
</svg>
