<svg width="85" height="85" viewBox="0 0 85 85" fill="none" xmlns="http://www.w3.org/2000/svg">
<rect width="85" height="85" fill="white"/>
<path d="M15.7709 77C22.7709 56 43.7709 29 60.2709 22.5" stroke="#5BC7A0" stroke-width="2" stroke-linecap="round" stroke-linejoin="bevel"/>
<path d="M18.2709 41C20.6505 43.5842 26.5892 44.5705 29.7135 43.8552C30.999 39.9693 29.6505 36.5842 27.2709 34C24.8912 31.4158 14.4337 31.3696 10.7709 31.5C14.2709 35.5 14.7709 38 18.2709 41Z" fill="#6DF9C7"/>
<path d="M29.7135 43.8552C26.5892 44.5705 20.6505 43.5842 18.2709 41C14.7709 38 14.2709 35.5 10.7709 31.5C14.4337 31.3696 24.8912 31.4158 27.2709 34C29.6505 36.5842 30.999 39.9693 29.7135 43.8552ZM29.7135 43.8552C22.4887 34.8358 14.8712 33.608 13.7709 33" stroke="#5BC7A0" stroke-linejoin="round"/>
<path d="M36.7086 67.5299C32.3178 67.0377 29.3686 64.201 27.7709 60.5C30.7565 56.3065 34.3185 53.6774 38.7093 54.1696C43.1 54.6617 53.059 60.8093 55.6504 64.6217C50.7886 67.5986 41.0994 68.022 36.7086 67.5299Z" fill="#6DF9C7"/>
<path d="M27.7709 60.5C29.3686 64.201 32.3178 67.0377 36.7086 67.5299C41.0994 68.022 50.7886 67.5986 55.6504 64.6217C53.059 60.8093 43.1 54.6617 38.7093 54.1696C34.3185 53.6774 30.7565 56.3065 27.7709 60.5ZM27.7709 60.5C42.292 61.1214 51.2898 63.1267 52.7248 63.7906M27.7709 60.5L23.2709 60.5" stroke="#5BC7A0" stroke-linejoin="round"/>
<path d="M49.4316 44.1197C46.5166 43.1087 44.84 40.3099 44.3213 37.5431C47.0003 35.1462 49.9354 34.3163 52.8504 35.3273C55.7654 36.3382 61.0924 43.0044 62.2709 46C58.2709 45.5 52.3466 45.1306 49.4316 44.1197Z" fill="#6DF9C7"/>
<path d="M44.3213 37.5431C44.84 40.3099 46.5166 43.1087 49.4316 44.1197C52.3466 45.1306 58.2709 45.5 62.2709 46C61.0924 43.0044 55.7654 36.3382 52.8504 35.3273C49.9354 34.3163 47.0003 35.1462 44.3213 37.5431ZM44.3213 37.5431C54.1166 40.2011 58.8956 43.8269 59.7709 44.5" stroke="#5BC7A0" stroke-linejoin="round"/>
<path d="M43.638 21.0129C44.5616 23.6855 47.125 25.2251 49.6603 25.7033C51.8598 23.2503 52.6234 20.5611 51.6998 17.8884C50.7762 15.2158 45.5397 9.85991 42.7954 8.77679C41.6189 12.2305 42.7144 18.3402 43.638 21.0129Z" fill="#6DF9C7"/>
<path d="M49.6603 25.7033C47.125 25.2251 44.5616 23.6855 43.638 21.0129C42.7144 18.3402 41.6189 12.2305 42.7954 8.77679C45.5397 9.85991 50.7762 15.2158 51.6998 17.8884C52.6234 20.5611 51.8598 23.2503 49.6603 25.7033ZM49.6603 25.7033C47.2342 16.723 44.341 11.2899 43.725 10.487" stroke="#5BC7A0" stroke-linejoin="round"/>
<path d="M29.7709 43.5L32.2709 47.5" stroke="#5BC7A0" stroke-linecap="round" stroke-linejoin="bevel"/>
<path d="M49.2709 25L50.2709 28" stroke="#5BC7A0" stroke-linecap="round" stroke-linejoin="bevel"/>
<path d="M44.7709 37.5L40.7709 36.5" stroke="#5BC7A0" stroke-linecap="round" stroke-linejoin="bevel"/>
<path d="M65.2617 25.2277C63.3091 25.2472 61.7104 23.6751 60.808 21.8314C61.8889 19.4384 63.4585 18.0992 65.4111 18.0797C67.3636 18.0601 72.9265 20.6607 74.2709 22.5C71.7709 23.5 67.2143 25.2081 65.2617 25.2277Z" fill="#6DF9C7"/>
<path d="M60.808 21.8314C61.7104 23.6751 63.3091 25.2472 65.2617 25.2277C67.2143 25.2081 71.7709 23.5 74.2709 22.5C72.9265 20.6607 67.3636 18.0601 65.4111 18.0797C63.4585 18.0992 61.8889 19.4384 60.808 21.8314ZM60.808 21.8314C67.2106 21.2379 71.1053 21.742 71.7709 22" stroke="#5BC7A0" stroke-linejoin="round"/>
</svg>
