<svg width="277" height="72" viewBox="0 0 277 72" fill="none" xmlns="http://www.w3.org/2000/svg">
<path d="M8.5 71.4632V0.531252C30.2141 1.85051 49.5456 3.26392 67.7126 4.59218C121.343 8.51335 164.826 11.6925 229.5 9.5172V63.4757C158.604 60.1288 113.018 63.5925 49.4121 68.4256C36.621 69.3975 23.1011 70.4248 8.5 71.4632Z" fill="#F8F8F8" stroke="#C1C1C1"/>
<path d="M249.5 49.7397L230.5 63.0397V9.96033L249.5 23.2603V49.7397Z" fill="#F8F8F8" stroke="#C1C1C1"/>
<path d="M276.5 46.5507L249.5 49.4436V23.5564L276.5 26.4493V46.5507Z" fill="#F8F8F8" stroke="#C1C1C1"/>
<rect x="0.5" y="0.5" width="8" height="71" fill="#F8F8F8" stroke="#C1C1C1"/>
<path d="M207.5 9.49981V63.0974C144.07 61.7053 107.709 63.2746 42.5 69.4504V2.54368C109.538 8.15992 145.652 9.47312 207.5 9.49981Z" fill="#BDFAE4" stroke="#459F7F"/>
<line y1="2.5" x2="9" y2="2.5" stroke="#C1C1C1"/>
<line y1="4.5" x2="9" y2="4.5" stroke="#C1C1C1"/>
<line y1="6.5" x2="9" y2="6.5" stroke="#C1C1C1"/>
<line y1="8.5" x2="9" y2="8.5" stroke="#C1C1C1"/>
<line y1="10.5" x2="9" y2="10.5" stroke="#C1C1C1"/>
<line y1="12.5" x2="9" y2="12.5" stroke="#C1C1C1"/>
<line y1="14.5" x2="9" y2="14.5" stroke="#C1C1C1"/>
<line y1="16.5" x2="9" y2="16.5" stroke="#C1C1C1"/>
<line x1="276.963" y1="29.4986" x2="249.963" y2="27.4986" stroke="#C1C1C1"/>
<line x1="275.981" y1="32.4996" x2="249.981" y2="31.4996" stroke="#C1C1C1"/>
<line x1="276" y1="35.5" x2="250" y2="35.5" stroke="#C1C1C1"/>
<line x1="276.019" y1="38.4996" x2="250.019" y2="39.4996" stroke="#C1C1C1"/>
<line x1="276.038" y1="41.4985" x2="250.038" y2="43.4985" stroke="#C1C1C1"/>
<line x1="276.038" y1="44.4985" x2="250.038" y2="46.4985" stroke="#C1C1C1"/>
<line y1="18.5" x2="9" y2="18.5" stroke="#C1C1C1"/>
<line y1="20.5" x2="9" y2="20.5" stroke="#C1C1C1"/>
<line y1="22.5" x2="9" y2="22.5" stroke="#C1C1C1"/>
<line y1="24.5" x2="9" y2="24.5" stroke="#C1C1C1"/>
<line y1="26.5" x2="9" y2="26.5" stroke="#C1C1C1"/>
<line y1="28.5" x2="9" y2="28.5" stroke="#C1C1C1"/>
<line y1="30.5" x2="9" y2="30.5" stroke="#C1C1C1"/>
<line y1="32.5" x2="9" y2="32.5" stroke="#C1C1C1"/>
<line y1="34.5" x2="9" y2="34.5" stroke="#C1C1C1"/>
<line y1="36.5" x2="9" y2="36.5" stroke="#C1C1C1"/>
<line y1="38.5" x2="9" y2="38.5" stroke="#C1C1C1"/>
<line y1="40.5" x2="9" y2="40.5" stroke="#C1C1C1"/>
<line y1="42.5" x2="9" y2="42.5" stroke="#C1C1C1"/>
<line y1="44.5" x2="9" y2="44.5" stroke="#C1C1C1"/>
<line y1="46.5" x2="9" y2="46.5" stroke="#C1C1C1"/>
<line y1="48.5" x2="9" y2="48.5" stroke="#C1C1C1"/>
<line y1="50.5" x2="9" y2="50.5" stroke="#C1C1C1"/>
<line y1="58.5" x2="9" y2="58.5" stroke="#C1C1C1"/>
<line y1="54.5" x2="9" y2="54.5" stroke="#C1C1C1"/>
<line y1="56.5" x2="9" y2="56.5" stroke="#C1C1C1"/>
<line y1="52.5" x2="9" y2="52.5" stroke="#C1C1C1"/>
<line y1="60.5" x2="9" y2="60.5" stroke="#C1C1C1"/>
<line y1="62.5" x2="9" y2="62.5" stroke="#C1C1C1"/>
<line y1="64.5" x2="9" y2="64.5" stroke="#C1C1C1"/>
<line y1="62.5" x2="9" y2="62.5" stroke="#C1C1C1"/>
<line y1="68.5" x2="9" y2="68.5" stroke="#C1C1C1"/>
<line y1="66.5" x2="9" y2="66.5" stroke="#C1C1C1"/>
<line y1="70.5" x2="9" y2="70.5" stroke="#C1C1C1"/>
<line y1="64.5" x2="9" y2="64.5" stroke="#C1C1C1"/>
</svg>
