<svg width="191" height="72" viewBox="0 0 191 72" fill="none" xmlns="http://www.w3.org/2000/svg">
<path d="M6.5 71.4446V0.546942C21.0861 1.86052 34.084 3.26702 46.3044 4.58941C82.4994 8.50608 111.875 11.6848 155.5 9.52558V63.4638C107.674 60.1364 76.8717 63.6004 33.9462 68.4277C25.3602 69.3933 16.2892 70.4134 6.5 71.4446Z" fill="#F8F8F8" stroke="#C1C1C1"/>
<path d="M165.5 49.8398L156.5 62.4398V10.5602L165.5 23.1602V49.8398Z" fill="#F8F8F8" stroke="#C1C1C1"/>
<path d="M190.5 46.5544L165.5 49.439V23.561L190.5 26.4456V46.5544Z" fill="#F8F8F8" stroke="#C1C1C1"/>
<rect x="1.08362" y="0.5" width="4.96066" height="71" fill="#F8F8F8" stroke="#C1C1C1"/>
<path d="M149.5 9.49973V63.0933C103.008 61.7097 76.2856 63.2777 28.5 69.4314V2.56027C77.6284 8.15683 104.167 9.47059 149.5 9.49973Z" fill="#BDFAE4" stroke="#459F7F"/>
<line x1="0.583618" y1="2.5" x2="6.54427" y2="2.5" stroke="#C1C1C1"/>
<line x1="0.583618" y1="4.5" x2="6.54427" y2="4.5" stroke="#C1C1C1"/>
<line x1="0.583618" y1="6.5" x2="6.54427" y2="6.5" stroke="#C1C1C1"/>
<line x1="0.583618" y1="8.5" x2="6.54427" y2="8.5" stroke="#C1C1C1"/>
<line x1="0.583618" y1="10.5" x2="6.54427" y2="10.5" stroke="#C1C1C1"/>
<line x1="0.583618" y1="12.5" x2="6.54427" y2="12.5" stroke="#C1C1C1"/>
<line x1="0.583618" y1="14.5" x2="6.54427" y2="14.5" stroke="#C1C1C1"/>
<line x1="0.583618" y1="16.5" x2="6.54427" y2="16.5" stroke="#C1C1C1"/>
<line x1="189.958" y1="29.4983" x2="166.116" y2="27.4982" stroke="#C1C1C1"/>
<line x1="189.979" y1="32.4996" x2="166.136" y2="31.4996" stroke="#C1C1C1"/>
<line x1="191" y1="35.5" x2="165" y2="35.5" stroke="#C1C1C1"/>
<line x1="190.021" y1="38.4996" x2="166.178" y2="39.4996" stroke="#C1C1C1"/>
<line x1="190.042" y1="41.4983" x2="166.199" y2="43.4982" stroke="#C1C1C1"/>
<line x1="190.042" y1="44.4983" x2="166.199" y2="46.4982" stroke="#C1C1C1"/>
<line x1="0.583618" y1="18.5" x2="6.54427" y2="18.5" stroke="#C1C1C1"/>
<line x1="0.583618" y1="20.5" x2="6.54427" y2="20.5" stroke="#C1C1C1"/>
<line x1="0.583618" y1="22.5" x2="6.54427" y2="22.5" stroke="#C1C1C1"/>
<line x1="0.583618" y1="24.5" x2="6.54427" y2="24.5" stroke="#C1C1C1"/>
<line x1="0.583618" y1="26.5" x2="6.54427" y2="26.5" stroke="#C1C1C1"/>
<line x1="0.583618" y1="28.5" x2="6.54427" y2="28.5" stroke="#C1C1C1"/>
<line x1="0.583618" y1="30.5" x2="6.54427" y2="30.5" stroke="#C1C1C1"/>
<line x1="0.583618" y1="32.5" x2="6.54427" y2="32.5" stroke="#C1C1C1"/>
<line x1="0.583618" y1="34.5" x2="6.54427" y2="34.5" stroke="#C1C1C1"/>
<line x1="0.583618" y1="36.5" x2="6.54427" y2="36.5" stroke="#C1C1C1"/>
<line x1="0.583618" y1="38.5" x2="6.54427" y2="38.5" stroke="#C1C1C1"/>
<line x1="0.583618" y1="40.5" x2="6.54427" y2="40.5" stroke="#C1C1C1"/>
<line x1="0.583618" y1="42.5" x2="6.54427" y2="42.5" stroke="#C1C1C1"/>
<line x1="0.583618" y1="44.5" x2="6.54427" y2="44.5" stroke="#C1C1C1"/>
<line x1="0.583618" y1="46.5" x2="6.54427" y2="46.5" stroke="#C1C1C1"/>
<line x1="0.583618" y1="48.5" x2="6.54427" y2="48.5" stroke="#C1C1C1"/>
<line x1="0.583618" y1="50.5" x2="6.54427" y2="50.5" stroke="#C1C1C1"/>
<line x1="0.583618" y1="58.5" x2="6.54427" y2="58.5" stroke="#C1C1C1"/>
<line x1="0.583618" y1="54.5" x2="6.54427" y2="54.5" stroke="#C1C1C1"/>
<line x1="0.583618" y1="56.5" x2="6.54427" y2="56.5" stroke="#C1C1C1"/>
<line x1="0.583618" y1="52.5" x2="6.54427" y2="52.5" stroke="#C1C1C1"/>
<line x1="0.583618" y1="60.5" x2="6.54427" y2="60.5" stroke="#C1C1C1"/>
<line x1="0.583618" y1="62.5" x2="6.54427" y2="62.5" stroke="#C1C1C1"/>
<line x1="0.583618" y1="64.5" x2="6.54427" y2="64.5" stroke="#C1C1C1"/>
<line x1="0.583618" y1="62.5" x2="6.54427" y2="62.5" stroke="#C1C1C1"/>
<line x1="0.583618" y1="68.5" x2="6.54427" y2="68.5" stroke="#C1C1C1"/>
<line x1="0.583618" y1="66.5" x2="6.54427" y2="66.5" stroke="#C1C1C1"/>
<line x1="0.583618" y1="70.5" x2="6.54427" y2="70.5" stroke="#C1C1C1"/>
<line x1="0.583618" y1="64.5" x2="6.54427" y2="64.5" stroke="#C1C1C1"/>
</svg>
